<svg id="visual" viewBox="0 0 1000 150" width="1000" height="150" xmlns="http://www.w3.org/2000/svg" xmlns:xlink="http://www.w3.org/1999/xlink" version="1.1"><path d="M0 36L33.3 37C66.7 38 133.3 40 200 47.5C266.7 55 333.3 68 400 67C466.7 66 533.3 51 600 43.7C666.7 36.3 733.3 36.7 800 39.8C866.7 43 933.3 49 966.7 52L1000 55L1000 0L966.7 0C933.3 0 866.7 0 800 0C733.3 0 666.7 0 600 0C533.3 0 466.7 0 400 0C333.3 0 266.7 0 200 0C133.3 0 66.7 0 33.3 0L0 0Z" fill="#0066ff"></path><path d="M0 78L33.3 82.2C66.7 86.3 133.3 94.7 200 98.8C266.7 103 333.3 103 400 100C466.7 97 533.3 91 600 87C666.7 83 733.3 81 800 82.3C866.7 83.7 933.3 88.3 966.7 90.7L1000 93L1000 53L966.7 50C933.3 47 866.7 41 800 37.8C733.3 34.7 666.7 34.3 600 41.7C533.3 49 466.7 64 400 65C333.3 66 266.7 53 200 45.5C133.3 38 66.7 36 33.3 35L0 34Z" fill="#164ece"></path><path d="M0 99L33.3 102.2C66.7 105.3 133.3 111.7 200 115.2C266.7 118.7 333.3 119.3 400 118.3C466.7 117.3 533.3 114.7 600 115.8C666.7 117 733.3 122 800 123.3C866.7 124.7 933.3 122.3 966.7 121.2L1000 120L1000 91L966.7 88.7C933.3 86.3 866.7 81.7 800 80.3C733.3 79 666.7 81 600 85C533.3 89 466.7 95 400 98C333.3 101 266.7 101 200 96.8C133.3 92.7 66.7 84.3 33.3 80.2L0 76Z" fill="#1638a0"></path><path d="M0 130L33.3 132C66.7 134 133.3 138 200 139.3C266.7 140.7 333.3 139.3 400 139.3C466.7 139.3 533.3 140.7 600 140.8C666.7 141 733.3 140 800 140.3C866.7 140.7 933.3 142.3 966.7 143.2L1000 144L1000 118L966.7 119.2C933.3 120.3 866.7 122.7 800 121.3C733.3 120 666.7 115 600 113.8C533.3 112.7 466.7 115.3 400 116.3C333.3 117.3 266.7 116.7 200 113.2C133.3 109.7 66.7 103.3 33.3 100.2L0 97Z" fill="#0f2474"></path><path d="M0 151L33.3 151C66.7 151 133.3 151 200 151C266.7 151 333.3 151 400 151C466.7 151 533.3 151 600 151C666.7 151 733.3 151 800 151C866.7 151 933.3 151 966.7 151L1000 151L1000 142L966.7 141.2C933.3 140.3 866.7 138.7 800 138.3C733.3 138 666.7 139 600 138.8C533.3 138.7 466.7 137.3 400 137.3C333.3 137.3 266.7 138.7 200 137.3C133.3 136 66.7 132 33.3 130L0 128Z" fill="#04114c"></path></svg>