<svg id="visual" viewBox="0 0 1000 450" width="1000" height="450" xmlns="http://www.w3.org/2000/svg" xmlns:xlink="http://www.w3.org/1999/xlink" version="1.1"><rect x="0" y="0" width="1000" height="450" fill="#002233"></rect><path d="M0 405L33.3 398.3C66.7 391.7 133.3 378.3 200 372.7C266.7 367 333.3 369 400 376.2C466.7 383.3 533.3 395.7 600 404.7C666.7 413.7 733.3 419.3 800 411.7C866.7 404 933.3 383 966.7 372.5L1000 362L1000 451L966.7 451C933.3 451 866.7 451 800 451C733.3 451 666.7 451 600 451C533.3 451 466.7 451 400 451C333.3 451 266.7 451 200 451C133.3 451 66.7 451 33.3 451L0 451Z" fill="#0066FF" stroke-linecap="round" stroke-linejoin="miter"></path></svg>